<?xml version="1.0" encoding="UTF-8" standalone="no"?>
<!-- Created with Inkscape (http://www.inkscape.org/) -->

<svg
   xmlns:dc="http://purl.org/dc/elements/1.1/"
   xmlns:cc="http://creativecommons.org/ns#"
   xmlns:rdf="http://www.w3.org/1999/02/22-rdf-syntax-ns#"
   xmlns:svg="http://www.w3.org/2000/svg"
   xmlns="http://www.w3.org/2000/svg"
   xmlns:sodipodi="http://sodipodi.sourceforge.net/DTD/sodipodi-0.dtd"
   xmlns:inkscape="http://www.inkscape.org/namespaces/inkscape"
   id="svg4259"
   version="1.1"
   inkscape:version="0.91 r13725"
   xml:space="preserve"
   width="245.9725"
   height="245.9725"
   viewBox="0 0 245.9725 245.9725"
   sodipodi:docname="cap.svg"><metadata
     id="metadata4265"><rdf:RDF><cc:Work
         rdf:about=""><dc:format>image/svg+xml</dc:format><dc:type
           rdf:resource="http://purl.org/dc/dcmitype/StillImage" /><dc:title></dc:title></cc:Work></rdf:RDF></metadata><defs
     id="defs4263"><clipPath
       clipPathUnits="userSpaceOnUse"
       id="clipPath4291"><path
         d="m -1,-1 8.78,0 0,8.808 -8.78,0 L -1,-1 Z"
         id="path4293"
         inkscape:connector-curvature="0" /></clipPath><clipPath
       clipPathUnits="userSpaceOnUse"
       id="clipPath4307"><path
         d="m -1,-1 9.195,0 0,8.808 L -1,7.808 -1,-1 Z"
         id="path4309"
         inkscape:connector-curvature="0" /></clipPath><clipPath
       clipPathUnits="userSpaceOnUse"
       id="clipPath4323"><path
         d="m -1,-1 9.472,0 0,8.808 L -1,7.808 -1,-1 Z"
         id="path4325"
         inkscape:connector-curvature="0" /></clipPath><clipPath
       clipPathUnits="userSpaceOnUse"
       id="clipPath4339"><path
         d="m -1,-1 16.667,0 0,8.808 L -1,7.808 -1,-1 Z"
         id="path4341"
         inkscape:connector-curvature="0" /></clipPath><clipPath
       clipPathUnits="userSpaceOnUse"
       id="clipPath4355"><path
         d="m -1,-1 15.975,0 0,8.808 L -1,7.808 -1,-1 Z"
         id="path4357"
         inkscape:connector-curvature="0" /></clipPath><clipPath
       clipPathUnits="userSpaceOnUse"
       id="clipPath4371"><path
         d="m -1,-1 16.252,0 0,8.808 L -1,7.808 -1,-1 Z"
         id="path4373"
         inkscape:connector-curvature="0" /></clipPath></defs><sodipodi:namedview
     pagecolor="#ffffff"
     bordercolor="#666666"
     borderopacity="1"
     objecttolerance="10"
     gridtolerance="10"
     guidetolerance="10"
     inkscape:pageopacity="0"
     inkscape:pageshadow="2"
     inkscape:window-width="1260"
     inkscape:window-height="782"
     id="namedview4261"
     showgrid="false"
     inkscape:zoom="1.9189137"
     inkscape:cx="130.78366"
     inkscape:cy="131.12224"
     inkscape:window-x="159"
     inkscape:window-y="56"
     inkscape:window-maximized="0"
     inkscape:current-layer="g4267" /><g
     id="g4267"
     inkscape:groupmode="layer"
     inkscape:label="cap"
     transform="matrix(1.25,0,0,-1.25,-167.01375,952.98625)"><g
       id="g4269"><path
         d="m 249.689,704 c 0,31.861 -25.828,57.689 -57.689,57.689 -31.861,0 -57.689,-25.828 -57.689,-57.689 0,-31.861 25.828,-57.689 57.689,-57.689 31.861,0 57.689,25.828 57.689,57.689"
         style="fill:#ffffe0;fill-opacity:0.75;fill-rule:evenodd;stroke:#000000;stroke-width:0.40000001;stroke-linecap:butt;stroke-linejoin:round;stroke-miterlimit:10;stroke-dasharray:none;stroke-opacity:0.75"
         id="path4271"
         inkscape:connector-curvature="0" /></g><g
       id="g4273"><path
         d="m 329.689,704 c 0,31.861 -25.828,57.689 -57.689,57.689 -31.861,0 -57.689,-25.828 -57.689,-57.689 0,-31.861 25.828,-57.689 57.689,-57.689 31.861,0 57.689,25.828 57.689,57.689"
         style="fill:#90ee90;fill-opacity:0.75;fill-rule:evenodd;stroke:#000000;stroke-width:0.40000001;stroke-linecap:butt;stroke-linejoin:round;stroke-miterlimit:10;stroke-dasharray:none;stroke-opacity:0.75"
         id="path4275"
         inkscape:connector-curvature="0" /></g><g
       id="g4277"><path
         d="m 289.689,624 c 0,31.861 -25.828,57.689 -57.689,57.689 -31.861,0 -57.689,-25.828 -57.689,-57.689 0,-31.861 25.828,-57.689 57.689,-57.689 31.861,0 57.689,25.828 57.689,57.689"
         style="fill:#add8e6;fill-opacity:0.75;fill-rule:evenodd;stroke:#000000;stroke-width:0.40000001;stroke-linecap:butt;stroke-linejoin:round;stroke-miterlimit:10;stroke-dasharray:none;stroke-opacity:0.75"
         id="path4279"
         inkscape:connector-curvature="0" /></g><g
       id="g4281"><path
         d="m 232.012,662.442 c 5.331,5.056 9.605,11.119 12.575,17.839 -8.281,1.927 -16.893,1.927 -25.174,0 3.063,-6.672 7.335,-12.721 12.599,-17.839 z"
         style="fill:#8b0000;fill-opacity:1;fill-rule:evenodd;stroke:none"
         id="path4283"
         inkscape:connector-curvature="0" /></g><g
       id="g4285"
       transform="translate(229.017,621.305)"><g
         id="g4287"><g
           id="g4289"
           clip-path="url(#clipPath4291)"><g
             id="g4295"
             transform="translate(0,-785.192)"><text
               transform="matrix(1,0,0,-1,0,785.192)"
               style="font-variant:normal;font-weight:normal;font-size:9.96259975px;font-family:CMR10;-inkscape-font-specification:CMR10;writing-mode:lr-tb;fill:#000000;fill-opacity:1;fill-rule:nonzero;stroke:none"
               id="text4297"><tspan
                 x="0"
                 y="0"
                 id="tspan4299">P</tspan></text>
</g></g></g></g><g
       id="g4301"
       transform="translate(188.099,701.273)"><g
         id="g4303"><g
           id="g4305"
           clip-path="url(#clipPath4307)"><g
             id="g4311"
             transform="translate(0,-785.192)"><text
               transform="matrix(1,0,0,-1,0,785.192)"
               style="font-variant:normal;font-weight:normal;font-size:9.96259975px;font-family:CMR10;-inkscape-font-specification:CMR10;writing-mode:lr-tb;fill:#000000;fill-opacity:1;fill-rule:nonzero;stroke:none"
               id="text4313"><tspan
                 x="0"
                 y="0"
                 id="tspan4315">C</tspan></text>
</g></g></g></g><g
       id="g4317"
       transform="translate(268.027,700.879)"><g
         id="g4319"><g
           id="g4321"
           clip-path="url(#clipPath4323)"><g
             id="g4327"
             transform="translate(0,-785.192)"><text
               transform="matrix(1,0,0,-1,0,785.192)"
               style="font-variant:normal;font-weight:normal;font-size:9.96259975px;font-family:CMR10;-inkscape-font-specification:CMR10;writing-mode:lr-tb;fill:#000000;fill-opacity:1;fill-rule:nonzero;stroke:none"
               id="text4329"><tspan
                 x="0"
                 y="0"
                 id="tspan4331">A</tspan></text>
</g></g></g></g><g
       id="g4333"
       transform="translate(226.291,707.966)"><g
         id="g4335"><g
           id="g4337"
           clip-path="url(#clipPath4339)"><g
             id="g4343"
             transform="translate(0,-785.192)"><text
               transform="matrix(1,0,0,-1,0,785.192)"
               style="font-variant:normal;font-weight:normal;font-size:9.96259975px;font-family:CMR10;-inkscape-font-specification:CMR10;writing-mode:lr-tb;fill:#000000;fill-opacity:1;fill-rule:nonzero;stroke:none"
               id="text4345"><tspan
                 x="0 7.1949897"
                 y="0"
                 sodipodi:role="line"
                 id="tspan4347">CA</tspan></text>
</g></g></g></g><g
       id="g4349"
       transform="translate(199.855,657.978)"><g
         id="g4351"><g
           id="g4353"
           clip-path="url(#clipPath4355)"><g
             id="g4359"
             transform="translate(0,-785.192)"><text
               transform="matrix(1,0,0,-1,0,785.192)"
               style="font-variant:normal;font-weight:normal;font-size:9.96259975px;font-family:CMR10;-inkscape-font-specification:CMR10;writing-mode:lr-tb;fill:#000000;fill-opacity:1;fill-rule:nonzero;stroke:none"
               id="text4361"><tspan
                 x="0 7.1949897"
                 y="0"
                 sodipodi:role="line"
                 id="tspan4363">CP</tspan></text>
</g></g></g></g><g
       id="g4365"
       transform="translate(249.594,657.472)"><g
         id="g4367"><g
           id="g4369"
           clip-path="url(#clipPath4371)"><g
             id="g4375"
             transform="translate(0,-785.192)"><text
               transform="matrix(1,0,0,-1,0,785.192)"
               style="font-variant:normal;font-weight:normal;font-size:9.96259975px;font-family:CMR10;-inkscape-font-specification:CMR10;writing-mode:lr-tb;fill:#000000;fill-opacity:1;fill-rule:nonzero;stroke:none"
               id="text4377"><tspan
                 x="0 7.4719501"
                 y="0"
                 sodipodi:role="line"
                 id="tspan4379">AP</tspan></text>
</g></g></g></g><g
       id="g4381"><path
         d="m 224.64,716.145 17.232,-9.375"
         style="fill:none;stroke:#ff0000;stroke-width:0.40000001;stroke-linecap:butt;stroke-linejoin:round;stroke-miterlimit:10;stroke-dasharray:none;stroke-opacity:1"
         id="path4383"
         inkscape:connector-curvature="0" /></g></g></svg>